<svg width="32" height="26" viewBox="0 0 32 26" fill="none" xmlns="http://www.w3.org/2000/svg">
  <path d="M31.5261 3.45699C30.3636 3.95622 29.1624 4.30184 27.8836 4.45545C29.2011 3.6874 30.2086 2.45853 30.6736 0.96083C29.4336 1.69048 28.0774 2.18971 26.6436 2.49693C25.4811 1.26805 23.8149 0.5 21.9936 0.5C18.4674 0.5 15.6386 3.34178 15.6386 6.798C15.6386 7.29724 15.6774 7.75806 15.7936 8.21889C10.5236 7.98848 5.87362 5.45392 2.73487 1.65207C0.487373 5.64593 3.00612 8.94854 4.67237 10.0622C3.66487 10.0622 2.65737 9.75499 1.80487 9.29416C1.80487 12.4048 4.01362 14.9777 6.88112 15.5538C6.26112 15.7458 4.86612 15.861 4.01362 15.669C4.82737 18.1651 7.19112 20.0084 9.94237 20.0469C7.77237 21.7366 4.59487 23.0806 0.526123 22.6582C3.35487 24.4631 6.68737 25.5 10.2911 25.5C21.9936 25.5 28.3486 15.8994 28.3486 7.60445C28.3486 7.33564 28.3486 7.06682 28.3099 6.798C29.6274 5.83794 30.7124 4.72427 31.5261 3.45699V3.45699Z" fill="white"/>
  </svg>
  